<svg xmlns="http://www.w3.org/2000/svg" viewBox="0 0 113.36 33.42"><defs><style>.cls-1,.cls-3{fill:#231f20;}.cls-1{stroke:#231f20;stroke-width:0.25px;}.cls-1,.cls-2{stroke-miterlimit:10;}.cls-2{fill:none;stroke:#fff;}.cls-3{font-size:18px;font-family:BankGothicBT-Medium, BankGothic Md BT;font-weight:500;}.cls-4{letter-spacing:-0.02em;}.cls-5{letter-spacing:-0.07em;}</style></defs><title>Asset 3</title><g id="Layer_2" data-name="Layer 2"><g id="Layer_1-2" data-name="Layer 1"><path class="cls-1" d="M19.69,33.26,6,31.87a6.15,6.15,0,0,1-5.53-6L.13,6.41a6.16,6.16,0,0,1,9-5.59L23.35,8.17a6.16,6.16,0,0,1,3.33,5.57l-.2,13.49A6.16,6.16,0,0,1,19.69,33.26Z"/><polyline class="cls-2" points="8.75 24.04 8.75 15.01 16.61 21.43 22.54 17.15 22.54 30.93"/><polyline class="cls-2" points="3.65 4.4 3.65 25.62 17.18 25.62"/><text class="cls-3" transform="translate(29.95 25.62)"><tspan class="cls-4">T</tspan><tspan x="10.85" y="0">rime</tspan><tspan class="cls-5" x="52.54" y="0">t</tspan><tspan x="61.85" y="0">al</tspan></text></g></g></svg>