<svg xmlns="http://www.w3.org/2000/svg" viewBox="0 0 97.31 50.65"><defs><style>.cls-1,.cls-3{fill:#fff;}.cls-1,.cls-2{stroke:#231f20;stroke-miterlimit:10;}.cls-1{stroke-width:0.25px;}.cls-2{fill:none;}.cls-3{font-size:21px;font-family:BankGothicBT-Medium, BankGothic Md BT;font-weight:500;}.cls-4{letter-spacing:-0.02em;}.cls-5{letter-spacing:-0.07em;}.cls-6{letter-spacing:0em;}</style></defs><title>Asset 5</title><g id="Layer_2" data-name="Layer 2"><g id="Layer_1-2" data-name="Layer 1"><path class="cls-1" d="M46.55,33.26,32.9,31.87a6.16,6.16,0,0,1-5.54-6L27,6.41A6.16,6.16,0,0,1,36,.82L50.2,8.17a6.17,6.17,0,0,1,3.34,5.57l-.21,13.49A6.15,6.15,0,0,1,46.55,33.26Z"/><polyline class="cls-2" points="35.61 24.04 35.61 15.01 43.47 21.43 49.4 17.15 49.4 30.93"/><polyline class="cls-2" points="30.51 4.4 30.51 25.62 44.04 25.62"/><text class="cls-3" transform="translate(0 45.7)"><tspan class="cls-4">T</tspan><tspan x="12.66" y="0">rime</tspan><tspan class="cls-5" x="61.3" y="0">t</tspan><tspan class="cls-6" x="72.16" y="0">al</tspan></text></g></g></svg>